<svg width="124" height="92" viewBox="0 0 124 92" fill="none" xmlns="http://www.w3.org/2000/svg">
    <path
        d="M89.1275 1.68786C87.4813 3.56926 85.9292 5.26253 84.4946 7.04986C84.0007 7.6378 83.3893 7.66132 82.8484 7.61428C82.425 7.56725 82.5191 6.86172 82.4721 6.43841C82.2134 4.62755 82.0252 2.79319 81.7901 0.864746C80.1438 2.84022 78.5446 4.79218 76.9219 6.6971C75.8166 7.99056 74.6878 9.23699 73.5589 10.4599C70.8074 13.4466 69.3728 16.9978 69.2787 21.0428C69.2082 23.7003 69.1847 26.3813 69.2787 29.0388C69.4434 33.6012 67.5619 37.0583 63.9638 39.6922C61.2357 41.6677 58.4842 43.6197 55.8032 45.6422C51.3348 49.0287 48.6303 53.6146 46.7019 58.812C44.5618 64.6208 43.9268 70.5708 45.7141 76.4737C47.9483 83.7876 52.6518 88.985 60.3185 90.9605C61.1652 91.1721 62.0353 91.2897 62.9055 91.2897C69.7491 91.3603 76.6162 91.3838 83.4598 91.4308C85.5294 91.4308 87.2226 90.8899 88.1398 88.8439C89.1511 86.6097 87.6695 83.8582 85.2236 83.7406C82.9659 83.623 80.6847 83.7876 78.4035 83.8347C72.9475 83.9287 67.4914 84.0228 62.0353 83.7876C58.7664 83.6465 56.2735 81.9768 54.3686 79.4134C53.3338 78.0258 52.5577 76.4972 51.9228 74.898C51.7582 74.4982 51.3583 73.9573 51.9463 73.581C52.5813 73.1812 52.9105 73.8397 53.1692 74.169C54.1569 75.4859 55.0506 76.897 56.297 78.0023C58.1784 79.6956 60.1304 80.942 62.9525 80.7774C66.8094 80.5422 70.6663 80.7774 74.5467 80.8715C75.064 80.8715 75.1816 80.7539 75.2522 80.2835C75.6049 77.7436 74.0293 75.7211 71.5129 75.5095C70.8544 75.4624 69.9137 75.6741 69.655 75.1332C69.4669 74.7099 70.3841 74.2865 70.8074 73.8397C73.5589 70.9235 73.8176 67.49 73.3237 63.7036C72.5712 57.9183 65.3513 52.5093 58.2725 56.131C57.0026 56.766 55.8032 57.5421 54.5567 58.2241C54.3451 58.3416 54.1099 58.6003 53.8747 58.3887C53.7807 58.2946 53.8747 57.9654 53.9218 57.7537C54.5332 55.1433 56.6498 54.0144 58.8134 53.1678C64.9985 50.722 72.5947 53.7322 75.0876 59.8703C76.9219 64.4092 76.9925 68.7834 74.6878 73.1577C74.5467 73.4164 74.0998 73.6986 74.7348 74.0749C76.9454 75.3213 78.0037 77.2498 77.8626 79.7896C77.8156 80.5892 77.9097 80.9185 78.9209 80.895C81.4373 80.8009 83.9772 80.6833 86.4936 81.2007C86.9639 81.2948 87.0345 81.0361 87.0815 80.6833C87.2932 78.4962 85.8821 75.6035 83.6244 75.4389C83.2952 75.4154 83.1776 75.2978 83.1776 74.9686C83.3187 68.2661 82.7778 61.5165 84.2124 54.8846C84.6122 53.0737 85.5999 51.5451 86.5877 50.0164C88.7513 46.7475 89.8801 43.1258 89.9742 39.2219C90.0447 36.1646 90.0447 33.1073 90.0447 30.0735C90.0447 29.0623 90.2799 28.4273 91.3617 27.9099C94.372 26.4518 95.9476 23.8179 96.6061 20.6195C96.6767 20.2432 96.6767 19.8199 96.5591 19.4671C95.148 15.916 93.5488 12.3883 90.1858 10.2953C88.8453 9.44865 88.6337 8.64906 88.8218 7.26152C89.057 5.52122 89.01 3.73389 89.104 1.75841L89.1275 1.68786ZM91.2676 18.1031C88.6102 18.1031 85.9762 16.7861 86.329 14.4814C86.3525 14.2933 91.2676 14.1757 91.2676 18.1031ZM86.2819 21.7248C86.7758 21.6543 87.3402 21.4896 87.4343 21.96C87.5283 22.4068 86.9874 22.595 86.5877 22.7361C84.2594 23.5592 81.8841 24.3117 79.4383 24.7821C79.1326 24.8291 78.6857 25.1349 78.5446 24.6175C78.4271 24.2177 78.7798 23.9355 79.1091 23.8179C82.1899 22.9712 83.6715 22.4068 86.2584 21.7248H86.2819ZM79.1326 20.0316C78.6857 19.961 78.1684 20.1491 78.2154 19.4671C78.2624 18.7381 78.8033 18.9968 79.1561 19.0203C80.4496 19.0673 81.743 19.1849 83.013 19.279C84.2359 19.3731 85.4588 19.4907 86.6817 19.5847C87.011 19.6082 87.3637 19.6553 87.3402 20.1021C87.3167 20.5725 86.9169 20.3843 86.6582 20.4078C85.6469 20.4078 80.6142 20.2432 79.1091 20.0316H79.1326ZM81.8841 28.4038C81.649 28.4744 81.3432 28.4508 81.2727 28.2392C81.1316 27.8159 81.4608 27.5572 81.743 27.369C83.4833 26.1696 85.2942 25.1113 87.1756 24.1706C87.4108 24.0531 87.787 23.9119 87.9281 24.2647C88.0928 24.6175 87.74 24.7821 87.5048 24.9232C86.0232 25.9109 84.5181 26.8516 83.06 27.8394C82.7778 28.0275 82.3858 28.2078 81.8841 28.3803V28.4038Z"
        fill="#0E0E0E" />
    <path
        d="M34.3082 41.4327C32.5914 41.8089 27.7468 40.2333 26.8766 40.2097C21.6322 40.1392 16.3408 39.5748 11.1434 40.4684C6.67504 41.221 3.12388 43.5257 1.31303 47.9705C1.0073 48.6996 0.795647 49.4286 0.819165 50.2282C0.8662 58.3418 0.936752 66.4553 0.96027 74.5689C0.96027 75.2744 1.21896 75.5096 1.92449 75.5331C4.15866 75.5566 4.13514 75.6037 3.80589 73.3225C2.53595 64.6445 5.33454 57.5422 12.4133 52.3448C20.3858 46.4889 32.0975 47.8294 38.7059 55.1904C40.4462 57.1424 41.8573 59.2825 42.6099 62.0576C43.3154 58.2007 44.7264 54.8377 46.5373 51.6393C49.1007 47.1239 52.9576 43.8785 57.0967 40.9153C59.2133 39.4102 61.2593 37.811 63.1407 36.0236C63.3053 35.8825 63.5875 35.7649 63.4934 35.4827C63.3994 35.2475 63.1172 35.2475 62.9055 35.2475C62.3176 35.2475 45.2438 34.9888 45.1262 34.9653C45.2203 39.4572 45.2909 43.9726 44.9851 48.4644C44.9381 49.2875 44.5618 49.6873 43.8328 49.0288C37.436 43.3846 34.3317 41.4327 34.3317 41.4327H34.3082Z"
        fill="#F64C02" />
    <path
        d="M23.8901 87.3622C33.5323 87.3622 41.0815 79.6955 41.199 70.0533C41.3166 59.8702 33.5323 52.0154 23.9842 52.0859C14.2244 52.1565 6.67527 59.9408 6.69879 69.9593C6.7223 79.5544 14.4361 87.3622 23.8666 87.3622H23.8901ZM24.0547 60.6463C29.3462 60.6463 33.1796 64.5973 33.156 70.0533C33.156 74.9215 28.9229 79.0606 23.9607 79.0841C18.9044 79.0841 14.8123 74.8509 14.8123 69.6065C14.8123 64.7148 18.9985 60.6698 24.0547 60.6698V60.6463Z"
        fill="#0E0E0E" />
    <path
        d="M34.6373 41.6439C35.6956 42.3024 41.7396 47.3352 43.8326 49.0519C44.5852 49.6869 44.938 49.3106 44.985 48.4875C45.2907 43.9957 45.2437 39.5038 45.1261 34.9884C45.1496 30.2849 45.1731 25.5814 45.1966 20.8779C45.1966 19.1141 45.1966 19.0906 43.4328 19.0906C33.4379 19.0671 23.4429 19.0671 13.4479 19.02C12.7659 19.02 12.6483 19.2552 12.6483 19.8431C12.6483 25.746 12.6013 31.6489 12.5308 37.5754C12.5308 38.4455 12.7895 38.6572 13.6596 38.6337C17.3283 38.4926 20.9971 38.4926 24.6658 38.3044C28.3346 38.1163 31.4624 39.3862 34.3315 41.4793C34.3315 41.4793 34.5197 41.5969 34.6373 41.6674V41.6439ZM28.264 22.7828C31.2272 22.7828 34.1669 22.7593 37.1301 22.7828C38.7764 22.7828 39.4348 23.3002 39.4584 24.4761C39.5054 29.5324 39.5524 34.5886 39.5995 39.6684C39.5995 40.421 39.3643 40.6562 38.7058 40.1858C37.4123 39.2451 36.1424 38.3044 34.8489 37.3872C32.1679 35.4588 29.3458 34.0948 25.8652 34.3535C23.537 34.5416 21.1852 34.377 18.857 34.377C18.4337 34.377 18.1279 34.377 18.1515 33.789C18.1985 30.4731 18.1985 27.1806 18.175 23.8646C18.175 22.971 18.5277 22.6888 19.4214 22.7123C22.3846 22.7593 28.2875 22.7593 28.2875 22.7828H28.264Z"
        fill="#0E0E0E" />
    <path
        d="M123.204 87.1978C121.394 85.1753 119.959 82.9411 118.619 80.6599C116.996 77.8613 115.232 75.1333 114.503 71.9114C114.033 69.8183 114.268 67.8428 115.114 65.9379C116.667 62.4103 118.242 58.8826 119.818 55.3785C119.959 55.0728 120.265 54.673 119.912 54.4143C119.606 54.2027 119.324 54.5789 119.089 54.7671C115.749 57.4716 112.739 60.5289 109.541 63.3745C107.542 65.1618 105.425 66.8786 103.614 68.8541C100.181 72.5934 99.099 77.0147 100.604 81.9298C101.545 84.9636 104.602 87.3624 107.73 87.4094C112.763 87.48 117.795 87.4094 122.828 87.3624C122.922 87.3624 122.993 87.3154 123.204 87.2448V87.1978Z"
        fill="#F64C02" />
    <path
        d="M13.6129 12.1533C12.2019 12.1533 10.9084 12.412 9.99121 13.6114C9.00348 14.9049 9.1681 16.6687 10.391 17.727C10.7673 18.0562 11.1671 18.2208 11.6374 18.1503C16.0587 17.4918 20.5036 17.5624 24.9249 17.6564C31.11 17.7975 37.3186 17.4448 43.5037 17.8916C44.0211 17.9386 44.5385 17.9857 45.0559 18.0797C46.6551 18.3384 47.4312 17.9857 47.925 16.7157C48.4659 15.2812 47.9956 13.6584 46.7727 12.9764C45.8555 12.459 44.8677 12.2239 43.7859 12.2239C38.7297 12.2239 33.6734 12.2239 28.5936 12.2239C28.5936 12.2239 18.5986 12.1768 13.6129 12.1533Z"
        fill="#F64C02" />
    <path
        d="M91.9966 43.4312C91.4557 46.7002 90.3034 49.4988 88.4925 52.0387C88.2573 52.3679 88.2573 52.6031 88.6101 52.9323C91.4557 55.6604 97.1235 67.9365 98.6991 70.3823C99.0519 70.9232 99.2871 71.5112 99.5928 72.0991C99.8515 72.0991 99.9221 71.911 99.9926 71.7464C100.628 69.7944 101.85 68.2893 103.356 66.9488C103.708 66.6195 103.708 66.3373 103.497 65.9375C100.722 60.4815 97.9936 55.0019 95.2185 49.5458C94.2073 47.5468 93.1255 45.5713 91.9966 43.4077V43.4312Z"
        fill="#F64C02" />
    <path
        d="M59.472 33.4363C60.6479 33.4363 61.8003 33.3893 62.9761 33.4363C63.6817 33.4833 63.8463 33.2011 63.8463 32.5661C63.8463 31.1316 63.8933 29.7205 63.8463 28.2859C63.7992 26.9925 63.3054 26.4751 62.0354 26.5692C61.3534 26.6162 61.4005 26.3105 61.4005 25.8636C61.3534 23.7706 61.6356 21.6305 61.2358 19.5609C60.6009 16.245 57.8023 14.4341 55.0507 13.6345C54.6274 13.5169 54.6274 13.7521 54.6274 14.0343C54.5804 14.9045 54.5333 15.7746 54.4863 16.6448C54.4628 16.9975 54.5804 17.2092 54.9096 17.2797C58.4608 17.9382 57.7082 23.606 57.7552 24.4055C57.8023 25.6049 57.9669 26.7573 56.1325 26.6397C55.4035 26.5927 55.0507 27.2982 55.0507 28.0037C55.0507 29.5559 55.0977 31.108 55.0977 32.6837C55.0977 33.2717 55.3094 33.4363 55.8974 33.4128C57.0967 33.3422 58.2961 33.4128 59.4955 33.4128L59.472 33.4363Z"
        fill="#0E0E0E" />
    <path
        d="M89.9741 79.1077C91.5263 77.0852 92.1848 74.9215 92.561 72.6874C93.5958 66.3847 91.4557 61.0462 87.3872 56.3192C87.2225 56.131 87.0579 55.9899 86.8228 56.0369C86.517 56.084 86.5405 56.3662 86.517 56.5779C86.3994 57.6832 86.2113 68.6188 86.0231 72.9931C86.0231 73.2753 85.788 73.6986 86.2583 73.8162C88.5395 74.4512 89.0804 76.4502 89.8095 78.3316C89.88 78.5197 89.9036 78.7079 89.9976 79.1077H89.9741Z"
        fill="#0E0E0E" />
    <path
        d="M23.8428 64.0563C20.809 64.0563 18.2691 66.7138 18.2456 69.8652C18.2456 73.0165 20.9031 75.674 24.078 75.674C27.0412 75.674 29.6516 72.993 29.6281 69.9122C29.6281 66.5492 27.1352 64.0328 23.8193 64.0563H23.8428Z"
        fill="#0E0E0E" />
</svg>